# xmcd CD database file
#
# Track frame offsets:
#	150
#	17542
#	34662
#
# Disc length: 738 seconds
#
# Revision: 1
# Processed by: cddbd v1.5.2PL0 Copyright (c) Steve Scherf et al.
# Submitted via: CDex 1.70beta2
#
DISCID=1602e003
DTITLE=Cyndi Lauper - I`m Gonna Be Strong
DYEAR=1994
DGENRE=Pop
TTITLE0=I'm Gonna Be Strong
TTITLE1=Sally's Pigeons
TTITLE2=Feels Like Christmas
EXTD=YEAR: 1994
EXTT0=
EXTT1=
EXTT2=
PLAYORDER=
